<svg width="150" height="54" viewBox="0 0 150 54" fill="none" xmlns="http://www.w3.org/2000/svg">
<path d="M11.6632 22.309C12.5384 22.309 13.5382 22.338 14.6627 22.396C15.7872 22.454 16.8437 22.5409 17.8322 22.6569V21.1475C17.8322 18.9804 17.4229 17.481 16.6044 16.6494C16.0872 16.1972 15.4843 15.8536 14.8316 15.6391C14.1789 15.4246 13.4897 15.3436 12.805 15.4009C11.8055 15.3652 10.8106 15.5537 9.89348 15.9527C9.51128 16.1402 9.17192 16.4047 8.89666 16.7294C8.62139 17.0541 8.41614 17.4322 8.29375 17.8399C8.21347 18.1971 8.01125 18.5152 7.72184 18.7395C7.32535 18.9059 6.89463 18.9745 6.46605 18.9394H2.75567C2.31192 18.987 1.86585 18.8735 1.49888 18.6195C1.37744 18.4931 1.2841 18.3424 1.225 18.1774C1.16589 18.0124 1.14236 17.8367 1.15594 17.662C1.18676 16.0757 1.81978 14.5606 2.92664 13.4237C3.96894 12.3224 5.26165 11.4889 6.69501 10.9937C8.66562 10.3509 10.7332 10.0563 12.805 10.1231C15.1989 10.0149 17.5876 10.4311 19.8038 11.3426C21.4002 12.056 22.673 13.3392 23.3732 14.9411C24.1028 16.7673 24.4525 18.7229 24.4011 20.6887V32.004C24.4088 33.669 24.0785 35.3182 23.4302 36.8519C22.7524 38.4145 21.5784 39.7102 20.0898 40.5384C18.0321 41.5751 15.7387 42.0552 13.4379 41.9308H11.8382C7.80283 41.9308 4.82433 41.1665 2.90265 39.6378C0.980968 38.1091 0.0184627 35.6418 0.0151299 32.2359C-0.100488 30.1373 0.448808 28.0558 1.58487 26.2874C2.63031 24.8368 4.11221 23.7584 5.81416 23.2096C7.70274 22.5914 9.68007 22.2875 11.6672 22.31M12.0101 27.5928C10.5897 27.4893 9.17467 27.8564 7.9838 28.6374C7.49997 29.0826 7.12674 29.6346 6.89381 30.2494C6.66087 30.8642 6.57466 31.5249 6.64202 32.1789C6.57038 32.822 6.65207 33.4729 6.88042 34.0784C7.10877 34.6839 7.47729 35.2267 7.9558 35.6624C9.05356 36.3841 10.3559 36.7303 11.6672 36.649H12.638C13.3659 36.7219 14.1009 36.6349 14.7917 36.3942C15.4825 36.1535 16.1124 35.7649 16.6374 35.2556C17.4372 34.3267 17.8372 32.7606 17.8372 30.5576C17.7687 29.7395 17.3851 28.98 16.7673 28.4392C16.1495 27.8984 15.3458 27.6186 14.5257 27.6588C13.2449 27.6008 12.736 27.6008 12.0141 27.6008" fill="#E76943"/>
<path d="M58.8152 10.1181C61.8987 10.1181 64.1923 11.0567 65.6961 12.934C67.3102 15.1643 68.1067 17.8823 67.9517 20.6308L67.9587 40.2526C67.9912 40.4933 67.9751 40.7381 67.9112 40.9725C67.8473 41.2069 67.737 41.426 67.5868 41.617C67.149 41.8785 66.638 41.9905 66.131 41.9359H62.9905C62.4835 41.9907 61.9724 41.8787 61.5348 41.617C61.3844 41.4262 61.2739 41.207 61.21 40.9726C61.1461 40.7382 61.1301 40.4933 61.1628 40.2526L61.1558 21.6763C61.2455 20.2421 60.8968 18.8145 60.156 17.583C59.4895 16.6354 58.2807 16.1613 56.5296 16.1606C55.7745 16.1284 55.022 16.2685 54.3291 16.5702C53.6362 16.8719 53.0211 17.3273 52.5303 17.9019C51.4754 19.2567 50.9476 20.9478 51.0445 22.6619L51.0515 40.2546C51.084 40.4952 51.0679 40.74 51.0042 40.9743C50.9404 41.2086 50.8304 41.4279 50.6806 41.619C50.2425 41.8806 49.7312 41.9925 49.2238 41.9379H46.0844C45.577 41.9928 45.0656 41.8808 44.6276 41.619C44.4776 41.4279 44.3675 41.2087 44.3038 40.9744C44.2401 40.74 44.224 40.4952 44.2567 40.2546L44.2497 21.6783C44.3392 20.2441 43.9905 18.8165 43.2498 17.585C42.5833 16.6374 41.3745 16.1633 39.6234 16.1626C38.8684 16.1306 38.1159 16.2707 37.423 16.5724C36.7301 16.8741 36.115 17.3294 35.6241 17.9039C34.5701 19.2591 34.0427 20.95 34.1393 22.6639L34.1463 40.2566C34.179 40.4972 34.1629 40.742 34.0992 40.9764C34.0355 41.2107 33.9254 41.4299 33.7754 41.621C33.3376 41.8825 32.8267 41.9944 32.3197 41.9399H29.1792C28.6722 41.9947 28.1611 41.8827 27.7234 41.621C27.5732 41.43 27.463 41.2109 27.3993 40.9765C27.3356 40.7421 27.3196 40.4972 27.3525 40.2566L27.3455 12.6241C27.3126 12.3834 27.3286 12.1386 27.3923 11.9042C27.456 11.6698 27.5662 11.4506 27.7164 11.2597C28.1542 10.9983 28.6652 10.8863 29.1722 10.9408H32.1987C32.7057 10.8866 33.2166 10.9985 33.6544 11.2597C33.8045 11.4507 33.9146 11.6699 33.9783 11.9043C34.0421 12.1386 34.058 12.3834 34.0254 12.6241V13.7856C34.933 12.5712 36.1283 11.6013 37.5036 10.9629C38.879 10.3245 40.3914 10.0376 41.9051 10.1281C43.5732 10.0712 45.2274 10.4502 46.7042 11.2277C47.9936 11.9595 49.0442 13.048 49.7297 14.3624C50.6562 12.9972 51.9401 11.9129 53.4411 11.2277C55.1267 10.4675 56.9604 10.0919 58.8092 10.1281" fill="#E76943"/>
<path d="M105.067 1.70063V13.3698C106.076 12.2692 107.317 11.4065 108.7 10.8442C110.083 10.2818 111.574 10.0338 113.065 10.1181C116.3 10.1181 118.708 11.0567 120.288 12.9339C121.974 15.1335 122.814 17.8643 122.658 20.6307V40.2525C122.712 40.7246 122.59 41.2 122.316 41.588C121.878 41.8785 121.351 42.0019 120.83 41.9358H117.689C117.178 41.9938 116.663 41.8707 116.233 41.588C115.938 41.2089 115.805 40.7291 115.862 40.2525V21.6713C115.955 20.2254 115.574 18.7884 114.776 17.579C114.053 16.6314 112.74 16.1573 110.837 16.1566C110.047 16.1169 109.259 16.2524 108.529 16.5535C107.798 16.8546 107.143 17.3137 106.611 17.8979C105.521 19.2368 104.97 20.9342 105.067 22.6579V40.2505C105.121 40.7226 104.999 41.198 104.725 41.586C104.288 41.8763 103.761 41.9998 103.24 41.9338H100.099C99.5884 41.9923 99.0731 41.8691 98.6437 41.586C98.3489 41.2071 98.2156 40.7272 98.2727 40.2505V1.70063C98.2156 1.22402 98.3489 0.744116 98.6437 0.365189C99.073 0.0819599 99.5884 -0.0411842 100.099 0.0173346H103.24C103.761 -0.0485973 104.288 0.0748681 104.725 0.365189C104.999 0.753244 105.121 1.22861 105.067 1.70063Z" fill="#E76943"/>
<path d="M82.5824 22.309C83.4575 22.309 84.4574 22.338 85.5819 22.396C86.7063 22.454 87.7628 22.5409 88.7513 22.6569V21.1475C88.7513 18.9804 88.3421 17.481 87.5235 16.6494C87.0064 16.1972 86.4035 15.8536 85.7508 15.6391C85.0981 15.4246 84.4088 15.3436 83.7242 15.4009C82.7246 15.3652 81.7298 15.5538 80.8127 15.9527C80.4304 16.1402 80.091 16.4046 79.8158 16.7294C79.5405 17.0541 79.3353 17.4322 79.2129 17.8399C79.1327 18.1971 78.9305 18.5152 78.641 18.7395C78.2445 18.9059 77.8138 18.9745 77.3852 18.9394H73.6738C73.2301 18.987 72.784 18.8735 72.4171 18.6196C72.2956 18.4931 72.2023 18.3425 72.1432 18.1774C72.0841 18.0124 72.0605 17.8367 72.0741 17.662C72.1049 16.0757 72.738 14.5606 73.8448 13.4237C74.8871 12.3224 76.1798 11.4888 77.6132 10.9937C79.5838 10.3509 81.6514 10.0563 83.7232 10.1231C86.1171 10.0149 88.5058 10.4311 90.722 11.3426C92.3184 12.056 93.5912 13.3392 94.2914 14.9411C95.0209 16.7673 95.3706 18.7229 95.3192 20.6887V32.004C95.327 33.669 94.9967 35.3182 94.3484 36.852C93.6707 38.4146 92.4966 39.7102 91.0079 40.5384C88.9503 41.5751 86.6569 42.0552 84.3561 41.9308H82.7563C78.721 41.9308 75.7422 41.1665 73.8198 39.6378C71.8975 38.1091 70.9363 35.6418 70.9363 32.2359C70.8206 30.1367 71.3699 28.0545 72.506 26.2854C73.5506 24.8359 75.031 23.7579 76.7313 23.2086C78.6199 22.5904 80.5973 22.2865 82.5844 22.309M82.9273 27.5918C81.5072 27.4886 80.0926 27.8556 78.902 28.6364C78.4181 29.0816 78.0449 29.6336 77.812 30.2484C77.579 30.8633 77.4928 31.5239 77.5602 32.1779C77.4885 32.821 77.5703 33.4719 77.7986 34.0774C78.027 34.6829 78.3955 35.2257 78.874 35.6614C79.9717 36.3832 81.274 36.7294 82.5853 36.648H83.5562C84.2841 36.7209 85.0192 36.634 85.7099 36.3933C86.4007 36.1526 87.0306 35.764 87.5555 35.2546C88.3554 34.3257 88.7553 32.7597 88.7553 30.5566C88.6869 29.7385 88.3033 28.979 87.6855 28.4382C87.0677 27.8974 86.264 27.6176 85.4439 27.6578C84.1631 27.5998 83.6542 27.5998 82.9313 27.5998" fill="#E76943"/>
<path d="M137.257 22.309C138.132 22.309 139.132 22.338 140.257 22.396C141.381 22.454 142.438 22.5409 143.426 22.6569V21.1475C143.426 18.9804 143.017 17.481 142.198 16.6494C141.681 16.1972 141.078 15.8536 140.426 15.6391C139.773 15.4246 139.084 15.3436 138.399 15.4009C137.399 15.3651 136.404 15.5536 135.486 15.9527C135.104 16.1402 134.765 16.4046 134.49 16.7293C134.214 17.0541 134.009 17.4322 133.887 17.8399C133.807 18.1971 133.604 18.5152 133.315 18.7395C132.918 18.9059 132.488 18.9745 132.059 18.9394H128.35C127.906 18.987 127.46 18.8735 127.093 18.6195C126.971 18.4931 126.878 18.3424 126.819 18.1774C126.76 18.0124 126.736 17.8367 126.75 17.662C126.781 16.0757 127.414 14.5606 128.521 13.4237C129.563 12.3224 130.856 11.4888 132.289 10.9937C134.26 10.3509 136.327 10.0563 138.399 10.1231C140.793 10.0149 143.182 10.4311 145.398 11.3426C146.994 12.0561 148.267 13.3392 148.967 14.9411C149.697 16.7673 150.047 18.7229 149.995 20.6887V32.004C150.003 33.669 149.672 35.3182 149.024 36.8519C148.346 38.4145 147.172 39.7102 145.684 40.5384C143.626 41.5751 141.333 42.0552 139.032 41.9308H137.432C133.397 41.9308 130.419 41.1665 128.497 39.6378C126.574 38.1091 125.613 35.6418 125.613 32.2359C125.497 30.1366 126.046 28.0543 127.183 26.2854C128.227 24.8358 129.708 23.7579 131.408 23.2086C133.297 22.5904 135.274 22.2865 137.261 22.309M137.604 27.5918C136.184 27.4884 134.769 27.8555 133.578 28.6364C133.094 29.0816 132.721 29.6336 132.488 30.2484C132.255 30.8632 132.169 31.5239 132.236 32.1779C132.164 32.8209 132.246 33.4718 132.474 34.0773C132.702 34.6828 133.07 35.2256 133.549 35.6614C134.647 36.3831 135.949 36.7293 137.26 36.648H138.231C138.959 36.7209 139.694 36.6339 140.385 36.3932C141.076 36.1525 141.705 35.764 142.23 35.2546C143.03 34.3257 143.43 32.7596 143.43 30.5566C143.362 29.7385 142.978 28.979 142.36 28.4382C141.743 27.8974 140.939 27.6176 140.119 27.6578C138.838 27.5998 138.329 27.5998 137.607 27.5998" fill="#E76943"/>
<path d="M2.28414 53.9109V50.9931L2.34214 51.4029L0.0151367 48.0593H1.43714L3.21514 50.6513L2.65614 50.6263L4.25614 48.0593H5.63114L3.40314 51.4949L3.52614 50.9261V53.9109H2.28414Z" fill="#E76943"/>
<path d="M9.11816 53.9948C8.71759 53.9987 8.32033 53.9219 7.95016 53.7689C7.60024 53.6224 7.28305 53.4076 7.01716 53.1371C6.7483 52.8626 6.53954 52.5351 6.40416 52.1755C6.25871 51.7894 6.18615 51.3796 6.19016 50.967C6.18537 50.5547 6.25795 50.1451 6.40416 49.7595C6.54103 49.4036 6.74857 49.079 7.01426 48.8053C7.27996 48.5317 7.59832 48.3146 7.95016 48.1672C8.70109 47.8661 9.53924 47.8661 10.2902 48.1672C10.6419 48.3159 10.9599 48.5343 11.2249 48.8091C11.4899 49.084 11.6965 49.4097 11.8322 49.7665C12.1177 50.5438 12.1177 51.3972 11.8322 52.1745C11.6965 52.5314 11.4899 52.8571 11.2249 53.1319C10.9599 53.4068 10.6419 53.6252 10.2902 53.7739C9.91882 53.9277 9.5201 54.0045 9.11816 53.9998M9.11816 52.8123C9.34834 52.8142 9.57644 52.7686 9.78816 52.6783C9.99119 52.5909 10.1722 52.4594 10.3182 52.2935C10.4694 52.1214 10.588 51.9233 10.6682 51.7087C10.838 51.2329 10.838 50.7131 10.6682 50.2373C10.5887 50.0236 10.47 49.8267 10.3182 49.6566C10.1706 49.4926 9.98998 49.3618 9.78816 49.2727C9.57718 49.1797 9.34877 49.1326 9.11816 49.1348C8.88882 49.1323 8.66164 49.1794 8.45216 49.2727C8.24695 49.3653 8.06274 49.4986 7.91076 49.6646C7.75878 49.8306 7.64221 50.0258 7.56816 50.2383C7.40924 50.7159 7.40924 51.2321 7.56816 51.7097C7.64413 51.9263 7.76319 52.1252 7.91816 52.2945C8.06753 52.4588 8.2498 52.59 8.45316 52.6793C8.66338 52.7699 8.89024 52.8156 9.11916 52.8133" fill="#E76943"/>
<path d="M16.0248 53.9619C15.5908 53.9688 15.1621 53.8656 14.7788 53.662C14.4232 53.4725 14.1261 53.1894 13.9198 52.8433C13.709 52.485 13.601 52.0755 13.6078 51.6598V48.0483H14.8498V51.5849C14.8462 51.8054 14.9 52.0231 15.0059 52.2166C15.1064 52.3998 15.2524 52.554 15.4298 52.6644C15.6096 52.7767 15.8179 52.8346 16.0298 52.8313C16.2458 52.834 16.4581 52.7762 16.6429 52.6644C16.8243 52.5552 16.9745 52.4009 17.0788 52.2166C17.1871 52.0239 17.2424 51.8059 17.2388 51.5849V48.0493H18.4388V51.6608C18.4454 52.0766 18.3371 52.4861 18.1258 52.8443C17.9196 53.1904 17.6225 53.4736 17.2668 53.663C16.8862 53.866 16.4602 53.9692 16.0288 53.9629" fill="#E76943"/>
<path d="M20.3738 53.9108V48.0592H22.9228C23.2622 48.0551 23.5967 48.1402 23.8928 48.3061C24.1762 48.4636 24.4131 48.6929 24.5798 48.9709C24.7496 49.2592 24.8365 49.5889 24.8308 49.9235C24.8348 50.2594 24.7481 50.5903 24.5798 50.8811C24.4156 51.1654 24.1784 51.4007 23.8928 51.5628C23.5974 51.7308 23.2626 51.8171 22.9228 51.8127H21.5658V53.9118L20.3738 53.9108ZM21.5658 50.7931H22.8658C23.003 50.7975 23.1386 50.7628 23.2568 50.6931C23.3698 50.6228 23.4598 50.521 23.5158 50.4003C23.5773 50.2683 23.6081 50.124 23.6058 49.9784C23.6096 49.8265 23.5727 49.6764 23.4988 49.5436C23.4251 49.4193 23.3166 49.3192 23.1868 49.2558C23.0379 49.1852 22.8744 49.1509 22.7098 49.1558H21.5668L21.5658 50.7931ZM23.6378 53.9108L22.1738 51.2689L23.4398 51.06L25.0678 53.9188L23.6378 53.9108Z" fill="#E76943"/>
<path d="M29.6401 53.9109V48.0593H30.7671L32.8671 51.5289L32.1271 51.5199L34.2491 48.0593H35.3261V53.9109H34.1141V51.9047C34.1141 51.4036 34.1265 50.9525 34.1511 50.5513C34.1758 50.1501 34.2185 49.7503 34.2791 49.3518L34.4271 49.7446L32.7411 52.4025H32.1981L30.5451 49.7606L30.6851 49.3508C30.7451 49.724 30.7878 50.1072 30.8131 50.5003C30.8385 50.8935 30.8508 51.36 30.8501 51.8997V53.9059L29.6401 53.9109Z" fill="#E76943"/>
<path d="M37.3119 53.9109V48.0593H41.2019V49.1589H38.5129V52.8033H41.2549V53.9029L37.3119 53.9109ZM37.8879 50.3914H40.8069V51.4609H37.8879V50.3914Z" fill="#E76943"/>
<path d="M43.0259 53.9109V48.0593H44.1259L47.3079 52.4315H47.0779C47.0559 52.2589 47.0366 52.0903 47.0199 51.9257C47.0032 51.7611 46.9882 51.5945 46.9749 51.4259C46.9609 51.256 46.9499 51.0804 46.9419 50.8991C46.9339 50.7182 46.9269 50.5253 46.9219 50.3224C46.9169 50.1195 46.9139 49.8976 46.9139 49.6577V48.0583H48.1229V53.9099H47.0049L43.7569 49.4957L44.0689 49.5037C44.0962 49.7936 44.1196 50.0405 44.1389 50.2444C44.1582 50.4483 44.1732 50.6253 44.1839 50.7752C44.1952 50.9251 44.2049 51.0561 44.2129 51.168C44.2209 51.28 44.2269 51.3849 44.2299 51.4849C44.2329 51.5849 44.2299 51.6908 44.2299 51.8028V53.9099L43.0259 53.9109Z" fill="#E76943"/>
<path d="M51.3138 53.9109V49.1879H49.6357V48.0593H54.2737V49.1879H52.5468V53.9109H51.3138Z" fill="#E76943"/>
<path d="M54.693 53.9109L56.946 48.0593H58.046L60.291 53.9109H59.024L57.864 50.7592C57.831 50.6703 57.791 50.5593 57.745 50.4163C57.699 50.2734 57.65 50.1295 57.601 49.9735C57.552 49.8176 57.501 49.6687 57.461 49.5267C57.421 49.3848 57.384 49.2668 57.361 49.1719L57.583 49.1639C57.5503 49.2918 57.5133 49.4251 57.472 49.5637C57.4307 49.7023 57.388 49.8416 57.344 49.9815C57.3 50.1241 57.2533 50.2621 57.204 50.3954C57.1546 50.5286 57.108 50.6596 57.064 50.7882L55.904 53.9149L54.693 53.9109ZM55.737 52.6814L56.137 51.6698H58.777L59.188 52.6814H55.737Z" fill="#E76943"/>
<path d="M61.5918 53.9109V48.0593H62.8248V52.7824H65.4318V53.9109H61.5918Z" fill="#E76943"/>
<path d="M70.0854 48.0593H71.3214V53.9109H70.0874L70.0854 48.0593ZM70.5794 51.5579L70.5874 50.4213H74.3454V51.5579H70.5794ZM73.7124 48.0593H74.9464V53.9109H73.7124V48.0593Z" fill="#E76943"/>
<path d="M76.9313 53.9109V48.0593H80.8213V49.1589H78.1313V52.8033H80.8783V53.9029L76.9313 53.9109ZM77.5073 50.3914H80.4313V51.4609H77.5123L77.5073 50.3914Z" fill="#E76943"/>
<path d="M81.9664 53.9109L84.2195 48.0593H85.3195L87.5645 53.9109H86.2955L85.1354 50.7592C85.1028 50.6699 85.0631 50.5556 85.0165 50.4163C84.9695 50.2774 84.9224 50.1295 84.8724 49.9735C84.8224 49.8176 84.7725 49.6687 84.7325 49.5267C84.6925 49.3848 84.6554 49.2668 84.6324 49.1719L84.8544 49.1639C84.8211 49.2918 84.7841 49.4251 84.7435 49.5637C84.7028 49.7023 84.6605 49.8416 84.6165 49.9815C84.5725 50.1241 84.5258 50.2621 84.4764 50.3954C84.4271 50.5286 84.3805 50.6596 84.3365 50.7882L83.1765 53.9149L81.9664 53.9109ZM83.0104 52.6814L83.4105 51.6698H86.0505L86.4615 52.6814H83.0104Z" fill="#E76943"/>
<path d="M88.8652 53.9109V48.0593H90.0992V52.7824H92.7062V53.9109H88.8652Z" fill="#E76943"/>
<path d="M94.8506 53.9109V49.1879H93.1726V48.0593H97.8106V49.1879H96.0836V53.9109H94.8506Z" fill="#E76943"/>
<path d="M99.3245 48.0593H100.558V53.9109H99.3245V48.0593ZM99.8185 51.5579L99.8265 50.4213H103.584V51.5579H99.8185ZM102.951 48.0593H104.184V53.9109H102.951V48.0593Z" fill="#E76943"/>
<path d="M109.191 53.9109V48.0593H111.634C111.959 48.0555 112.279 48.1409 112.559 48.3062C112.834 48.4687 113.061 48.7008 113.217 48.979C113.381 49.2726 113.464 49.6043 113.459 49.9406C113.464 50.2819 113.381 50.6187 113.217 50.9181C113.061 51.2013 112.834 51.439 112.559 51.6079C112.281 51.778 111.96 51.8663 111.634 51.8628H110.425V53.9109H109.191ZM110.408 50.7342H111.494C111.619 50.7372 111.743 50.7024 111.848 50.6343C111.953 50.5627 112.04 50.4662 112.099 50.3534C112.163 50.23 112.195 50.0926 112.193 49.9536C112.196 49.8144 112.164 49.6767 112.099 49.5537C112.04 49.4445 111.953 49.3525 111.848 49.2868C111.742 49.2208 111.619 49.1861 111.494 49.1869H110.408V50.7342Z" fill="#E76943"/>
<path d="M113.836 53.9109L116.089 48.0593H117.189L119.434 53.9109H118.168L117.009 50.7592C116.976 50.6699 116.937 50.5556 116.89 50.4163C116.843 50.2774 116.795 50.1295 116.746 49.9735C116.697 49.8176 116.646 49.6687 116.606 49.5267C116.566 49.3848 116.529 49.2668 116.506 49.1719L116.728 49.1639C116.695 49.2918 116.658 49.4251 116.617 49.5637C116.576 49.7023 116.533 49.8416 116.49 49.9815C116.446 50.1241 116.399 50.2621 116.35 50.3954C116.301 50.5286 116.254 50.6596 116.21 50.7882L115.05 53.9149L113.836 53.9109ZM114.88 52.6814L115.28 51.6698H117.92L118.331 52.6814H114.88Z" fill="#E76943"/>
<path d="M120.735 53.9108V48.0592H123.285C123.624 48.0551 123.959 48.1403 124.255 48.3061C124.538 48.4637 124.775 48.6929 124.942 48.9709C125.112 49.2593 125.199 49.5889 125.193 49.9235C125.197 50.2594 125.11 50.5902 124.942 50.8811C124.778 51.1653 124.541 51.4006 124.255 51.5628C123.96 51.7307 123.625 51.817 123.285 51.8127H121.928V53.9118L120.735 53.9108ZM121.928 50.7931H123.228C123.365 50.7974 123.501 50.7628 123.619 50.6931C123.732 50.6228 123.822 50.521 123.878 50.4003C123.939 50.2683 123.97 50.124 123.968 49.9784C123.972 49.8265 123.935 49.6764 123.861 49.5436C123.787 49.4191 123.678 49.3191 123.548 49.2557C123.399 49.1851 123.236 49.1509 123.071 49.1558H121.928V50.7931ZM124 53.9108L122.536 51.2689L123.802 51.06L125.43 53.9188L124 53.9108Z" fill="#E76943"/>
<path d="M128.021 53.9109V49.1879H126.343V48.0593H130.981V49.1879H129.254V53.9109H128.021Z" fill="#E76943"/>
<path d="M132.493 53.9109V48.0593H133.593L136.775 52.4315H136.545C136.523 52.2596 136.504 52.0907 136.487 51.9257C136.47 51.7608 136.455 51.5949 136.442 51.4259C136.429 51.257 136.417 51.0801 136.409 50.8991C136.401 50.7182 136.394 50.5253 136.389 50.3224C136.384 50.1195 136.381 49.8976 136.381 49.6577V48.0583H137.59V53.9099H136.474L133.226 49.4957L133.538 49.5037C133.565 49.7936 133.589 50.0405 133.608 50.2444C133.627 50.4483 133.642 50.6253 133.653 50.7752C133.664 50.9251 133.674 51.0561 133.682 51.168C133.69 51.28 133.696 51.3849 133.698 51.4849C133.7 51.5849 133.698 51.6908 133.698 51.8028V53.9099L132.493 53.9109Z" fill="#E76943"/>
<path d="M139.585 53.9109V48.0593H143.475V49.1589H140.785V52.8033H143.532V53.9029L139.585 53.9109ZM140.161 50.3914H143.081V51.4609H140.161V50.3914Z" fill="#E76943"/>
<path d="M145.295 53.9108V48.0592H147.844C148.183 48.055 148.518 48.1402 148.814 48.3061C149.097 48.4635 149.334 48.6928 149.501 48.9709C149.671 49.2592 149.757 49.5889 149.752 49.9235C149.756 50.2594 149.669 50.5903 149.501 50.8811C149.337 51.1655 149.099 51.4008 148.814 51.5628C148.518 51.7308 148.184 51.8171 147.844 51.8127H146.487V53.9118L145.295 53.9108ZM146.487 50.7931H147.787C147.924 50.7973 148.059 50.7626 148.177 50.6931C148.29 50.6228 148.38 50.521 148.436 50.4003C148.498 50.2684 148.529 50.1241 148.527 49.9784C148.531 49.8265 148.494 49.6764 148.42 49.5436C148.346 49.4193 148.238 49.3192 148.108 49.2558C147.959 49.1852 147.795 49.1509 147.631 49.1558H146.488L146.487 50.7931ZM148.559 53.9108L147.095 51.2689L148.362 51.06L149.99 53.9188L148.559 53.9108Z" fill="#E76943"/>
</svg>
